# xmcd
#
# Track frame offsets:
#	150
#	6620
#	16155
#	18975
#	37845
#	56380
#	82066
#	85462
#	108929
#	120076
#	126268
#	134065
#	155498
#	158513
#	174541
#	187699
#	199268
#	212760
#	230586
#	248425
#	263802
#	284176
#	299692
#
# Disc length: 4310 seconds
#
# Revision: 2
# Processed by: cddbd v1.5.1PL0 Copyright (c) Steve Scherf et al.
# Submitted via: audiograbber 1.83.01
#
DISCID=4010d417
DTITLE=Jose Cid - Nasci pra Musica -Antologia- CD 2
DYEAR=2003
DGENRE=Folk
TTITLE0=Junto a Lareira
TTITLE1=Romantico,mas nao tropego
TTITLE2=A mansarda
TTITLE3=Na Cabana junto á praia
TTITLE4=Verdes trigais em flor
TTITLE5=Foxtrot da lili
TTITLE6=A pouco e pouco 
TTITLE7=20 Anos
TTITLE8=Gloria,gloria aleluja
TTITLE9=Ontem,hoje e amanha
TTITLE10=A rosa que te dei
TTITLE11=Morrer de amor por ti
TTITLE12=Se eu fizesse amor contigo
TTITLE13=Desencontro
TTITLE14=Uma lagrima
TTITLE15=Se eu pudesse
TTITLE16=Lenda de El Rei D.Sebastiao
TTITLE17=Sohnador
TTITLE18=19
TTITLE19=20
TTITLE20=21
TTITLE21=22
TTITLE22=23
EXTD=
EXTT0=
EXTT1=
EXTT2=
EXTT3=
EXTT4=
EXTT5=
EXTT6=
EXTT7=
EXTT8=
EXTT9=
EXTT10=
EXTT11=
EXTT12=
EXTT13=
EXTT14=
EXTT15=
EXTT16=
EXTT17=
EXTT18=
EXTT19=
EXTT20=
EXTT21=
EXTT22=
PLAYORDER=
